HIERARCHY
ROOT Hips
{
  OFFSET -92.2196 103.634 -192.345
  CHANNELS 6 Xposition Yposition Zposition Zrotation Xrotation Yrotation
  JOINT RightUpLeg
  {
    OFFSET -8.9458 -8.66707 0.101652
    CHANNELS 3 Zrotation Xrotation Yrotation
    JOINT RightLeg
    {
      OFFSET 0 -44.4227 1.3727
      CHANNELS 3 Zrotation Xrotation Yrotation
      JOINT RightFoot
      {
        OFFSET 0.253549 -42.0924 -1.46059
        CHANNELS 3 Zrotation Xrotation Yrotation
        JOINT RightToes
        {
          OFFSET 0.04 -4.41509 8.4991
          CHANNELS 3 Zrotation Xrotation Yrotation
          End Site
          {
            OFFSET -0.08 -0.137448 9.77979
          }
        }
      }
    }
  }
  JOINT Spine
  {
    OFFSET 0 11.8905 0
    CHANNELS 3 Zrotation Xrotation Yrotation
    JOINT Spine1
    {
      OFFSET 0 25.6574 0.127663
      CHANNELS 3 Zrotation Xrotation Yrotation
      JOINT Head
      {
        OFFSET 0 8.73416 0.011341
        CHANNELS 3 Zrotation Xrotation Yrotation
        End Site
        {
          OFFSET -0.29 12.7742 2.51395
        }
      }
      JOINT LeftShoulder1
      {
        OFFSET 8.99 -0.362252 -0.22
        CHANNELS 3 Zrotation Xrotation Yrotation
        JOINT LeftArm
        {
          OFFSET 10.2827 -0.00337999 0.322123
          CHANNELS 3 Zrotation Xrotation Yrotation
          JOINT LeftForeArm
          {
            OFFSET 26.2597 0.099144 -1.42434
            CHANNELS 3 Zrotation Xrotation Yrotation
            JOINT LeftHand
            {
              OFFSET 22.0902 0.085362 1.02216
              CHANNELS 3 Zrotation Xrotation Yrotation
              End Site
              {
                OFFSET 13.419 -0.6 1.50291
              }
            }
          }
        }
      }
      JOINT RightShoulder
      {
        OFFSET -8.99 -0.362252 -0.22
        CHANNELS 3 Zrotation Xrotation Yrotation
        JOINT RightArm
        {
          OFFSET -10.2827 -0.00338 0.322123
          CHANNELS 3 Zrotation Xrotation Yrotation
          JOINT RightForeArm
          {
            OFFSET -26.364 0.099144 -1.42434
            CHANNELS 3 Zrotation Xrotation Yrotation
            JOINT RightHand
            {
              OFFSET -22.0324 0.085362 1.02216
              CHANNELS 3 Zrotation Xrotation Yrotation
              End Site
              {
                OFFSET -13.3284 -0.6 1.50291
              }
            }
          }
        }
      }
    }
  }
  JOINT LeftUpLeg
  {
    OFFSET 8.9458 -8.66707 0.101652
    CHANNELS 3 Zrotation Xrotation Yrotation
    JOINT LeftLeg
    {
      OFFSET 0 -44.4227 1.3727
      CHANNELS 3 Zrotation Xrotation Yrotation
      JOINT LeftFoot
      {
        OFFSET -0.253549 -42.0924 -1.46059
        CHANNELS 3 Zrotation Xrotation Yrotation
        JOINT LeftToes
        {
          OFFSET -0.04 -4.41509 8.4991
          CHANNELS 3 Zrotation Xrotation Yrotation
          End Site
          {
            OFFSET 0.08 -0.047448 9.77979
          }
        }
      }
    }
  }
}
MOTION
Frames:	21
Frame Time:	0.0333333
-80.1955 100.606 -113.955 1.42004 3.67849 146.825 4.7944 -4.93269 -7.36904 -1.25595 21.2879 -8.75605 -3.93106 -15.2435 -0.488791 0.0462048 0.000530889 0.662642 7.81339 6.05943 1.52243 -0.187426 8.25596 2.38366 8.04576 6.75075 -19.7483 -25.814 3.37078 -7.00833 -54.1595 -45.585 1.4493 130.969 85.0858 -137.731 1.3861 9.86417 0.734904 28.8777 4.70331 9.28237 34.2986 -21.957 5.36706 6.19421 48.1039 8.78321 -10.9395 9.47104 -0.568427 4.41743 -21.4546 -7.17681 0.821079 33.4882 12.4799 -5.27727 -2.67583 0.231421 -1.30529e-009 8.75227e-006 -1.46892e-008 
-78.9569 100.68 -116.054 1.1162 3.62778 145.173 4.45941 -3.42014 -7.48157 -1.63613 20.9329 -6.81008 -3.14178 -16.4063 -0.47379 0.0462048 0.000530889 0.662642 7.52464 5.62982 1.87009 -0.821736 8.37565 2.74837 7.90558 6.67035 -19.6588 -25.5524 3.30298 -6.87959 -53.3238 -46.0899 3.50425 142.422 84.554 -148.79 0.709691 9.89194 0.487605 29.2515 4.70279 9.15002 33.9889 -20.7971 6.11023 5.81979 47.7414 9.45381 -11.0308 9.42162 -0.0341192 4.37631 -21.0003 -6.47325 0.739141 23.3478 11.7021 -5.40302 -2.12602 0.257861 -1.30529e-009 8.75227e-006 -1.46892e-008 
-77.6809 100.724 -118.218 1.14338 3.44974 143.849 4.10256 -1.46555 -7.90618 -1.33089 20.1113 -4.88222 -3.19128 -17.1329 -0.505297 0.0462048 0.000530889 0.662642 7.49836 5.22171 2.02017 -1.21032 8.48067 2.91213 7.70594 6.95937 -19.6258 -25.4117 3.31645 -6.96627 -52.1235 -46.3412 5.58097 146.49 84.5069 -152.864 -0.635065 9.9525 0.228304 29.1264 4.71336 9.2233 33.8211 -18.9925 6.25062 4.73911 46.5039 11.0672 -10.0767 9.55583 -1.20275 4.69767 -19.7073 -0.29267 1.02775 12.8852 7.5834 -6.91565 -1.44961 0.371798 -1.30529e-009 8.75227e-006 -1.46892e-008 
-76.4103 100.606 -120.49 1.29973 3.15189 141.963 3.68701 0.228764 -8.43796 -0.953935 19.836 -2.50523 -3.75873 -18.1662 -0.596583 0.0462048 0.000530889 0.662642 8.09199 4.4521 2.16624 -2.15518 9.04622 3.27478 7.66922 6.75248 -19.0661 -25.1824 3.22578 -6.7518 -51.498 -47.1283 6.91128 150.481 83.8428 -156.25 -0.842194 9.95978 0.331607 29.0986 4.76609 9.38116 33.8004 -18.1374 6.97572 5.0392 46.1858 10.8944 -10.9925 9.46315 -0.527414 5.22632 -18.5699 2.53526 -0.308609 4.88369 7.78298 -9.98947 -1.75594 0.509184 -1.30529e-009 8.75227e-006 -1.46892e-008 
-75.0963 100.318 -122.945 1.44263 2.73172 140.332 3.27839 1.73696 -9.03033 -0.63116 19.9379 -0.443485 -3.57601 -19.5884 -0.63399 0.0462048 0.000530889 0.662642 8.45273 3.56776 2.29131 -2.45322 9.34485 3.40314 7.32239 6.72174 -18.2992 -25.1612 3.18578 -6.63215 -50.4495 -47.6291 8.0838 153.644 83.878 -159.131 -1.36747 9.9777 0.562476 29.2259 4.7887 9.39941 33.4999 -17.8379 7.39738 5.37919 46.0856 10.5359 -11.4645 9.42723 -0.324421 4.99363 -18.7922 1.98993 0.11469 1.65476 8.61873 -10.6518 -3.87323 0.36437 -1.30529e-009 8.75227e-006 -1.46892e-008 
-73.7789 100.175 -125.311 1.28921 2.40561 139.317 2.78402 3.28333 -9.2814 -0.540371 19.5258 0.975912 -3.11023 -20.4174 -0.614338 0.0462048 0.000530889 0.662642 7.91624 3.31026 2.11292 -2.3686 9.19621 3.22116 7.1637 7.01541 -17.8677 -25.3397 3.13438 -6.41531 -49.3998 -48.271 8.54871 159.422 83.7959 -164.368 -1.28637 9.9798 0.282626 29.0533 4.76296 9.38853 33.5597 -17.606 7.43263 5.26285 45.6025 10.7715 -11.1243 9.50091 -0.997017 4.36411 -19.1015 1.50757 0.387731 1.95617 9.1105 -7.72488 -4.38405 0.234223 -1.30529e-009 8.75227e-006 -1.46892e-008 
-72.3381 99.9873 -127.912 1.13003 2.65845 138.455 1.50576 5.11389 -10.1163 -0.244466 19.9902 2.97358 -2.63751 -21.3112 -0.587255 0.0462048 0.000530889 0.662642 7.32705 2.88439 1.91639 -2.74418 9.51732 3.15089 7.2788 6.94795 -17.8339 -24.8147 3.15203 -6.63286 -48.7614 -48.7231 8.53586 164.01 83.5636 -168.515 -0.616496 9.95127 0.238095 29.5602 4.81214 9.3467 33.4203 -18.5509 7.03911 5.33705 46.2054 10.5095 -11.8408 9.38041 -0.021624 3.39631 -18.2396 0.924604 0.533716 2.66166 8.07834 -6.48788 0.843481 0.458228 -1.30529e-009 8.75227e-006 -1.46892e-008 
-70.7544 99.9021 -130.758 0.944195 3.26712 137.234 -0.29474 7.17485 -11.212 -0.0968485 20.7091 5.74803 -1.21524 -21.4015 -0.413731 0.0462048 0.000530889 0.662642 6.03815 2.38993 2.19714 -1.89033 9.99559 3.15842 6.9731 7.06246 -17.8124 -25.5877 3.23884 -6.66829 -48.0372 -49.0603 6.98252 174.396 83.947 -178.378 -0.411278 9.93841 0.528995 29.0564 4.73684 9.31353 33.6253 -19.138 5.95752 5.4431 45.2495 10.4885 -11.9815 9.4437 -0.739031 2.61545 -16.408 0.686436 0.360428 2.8373 7.02962 -7.05239 5.79139 0.780748 -1.30529e-009 8.75227e-006 -1.46892e-008 
-69.0557 99.955 -133.554 0.594262 4.19876 136.331 -2.1075 8.90127 -11.3914 -0.50372 22.1139 7.59321 1.15305 -20.7019 -0.122294 0.0462048 0.000530889 0.662642 4.24603 2.4428 2.34427 -1.56327 9.80461 3.1567 7.41685 7.55556 -18.0469 -25.435 3.21107 -6.62776 -47.835 -49.3926 5.61111 177.353 84.4571 179.006 -0.20491 9.92308 1.21045 29.4635 4.73199 9.15792 33.6749 -20.1436 4.19033 5.41844 44.6618 10.5552 -12.167 9.46257 -1.01358 1.94953 -14.7749 1.21335 -0.5861 4.24985 7.72421 -7.02982 7.97074 0.890498 -1.30529e-009 8.75227e-006 -1.46892e-008 
-67.4476 100.253 -136.292 -0.373625 5.50165 135.603 -4.98794 9.68076 -10.5472 -0.301534 24.6413 8.2057 3.74441 -18.6814 0.127763 0.0462048 0.000530889 0.662642 2.22417 2.29087 2.2991 -2.11548 9.82456 3.13248 7.85205 8.09998 -18.4695 -24.8137 3.13198 -6.5678 -48.2705 -49.4173 3.8455 177.501 85.373 178.903 0.485196 9.89649 1.52937 29.3555 4.72186 9.16674 34.5049 -22.8847 2.61669 6.09805 46.6545 9.03111 -12.7712 9.36662 -0.301977 0.250863 -13.4128 1.08575 -1.41485 6.12421 7.97707 -5.68663 7.07305 0.671621 -1.30529e-009 8.75227e-006 -1.46892e-008 
-65.9725 100.459 -138.9 -0.975273 6.75255 135.006 -7.75588 9.13261 -9.70274 -0.0681689 29.4978 8.02573 6.82778 -14.6726 0.200713 0.0462048 0.000530889 0.662642 0.265715 2.9803 2.23065 -2.44488 9.27765 2.92604 7.87814 8.68191 -18.9969 -24.5303 3.17677 -6.80115 -48.6203 -48.9261 2.04058 170.535 87.4836 -174.775 0.997266 9.88039 2.40196 29.4694 4.65638 8.94528 34.5704 -24.3578 0.859643 6.25013 48.5861 8.33548 -11.8873 9.40838 -0.332304 -1.56746 -11.9431 0.759876 -1.71649 7.88333 8.50398 -2.78384 5.7926 0.277881 -1.30529e-009 8.75227e-006 -1.46892e-008 
-64.6715 100.298 -141.182 -1.85186 7.52814 133.577 -10.5695 5.27147 -8.35237 -0.048451 38.1194 7.39068 8.81239 -9.13516 -0.0818271 0.0462048 0.000530889 0.662642 -2.37552 3.81526 2.5375 -2.00051 8.40959 2.68646 7.81318 8.25236 -18.9521 -24.4621 3.13587 -6.6902 -50.0826 -48.5261 -0.7527 150.093 87.9285 -154.582 1.1481 9.87537 1.99287 29.0637 4.53568 8.74441 34.7128 -24.5402 -0.000371593 6.78006 50.2615 7.38685 -11.2571 9.41524 -0.0884296 -3.0401 -12.0722 0.649608 -1.89219 11.3086 9.96045 -1.83799 3.15555 0.139014 -1.30529e-009 8.75227e-006 -1.46892e-008 
-63.3747 99.8961 -143.108 -2.41725 8.85037 132.081 -12.7878 0.472967 -5.80688 -0.199612 48.2375 5.61306 7.53636 -2.59772 -0.478135 0.0462048 0.000530889 0.662642 -6.48924 5.41171 3.07454 -0.0724795 7.70374 2.06752 7.45846 7.4113 -18.3884 -24.331 3.18667 -6.89674 -51.2887 -47.0808 -3.59926 76.9376 88.1769 -82.814 1.25177 9.87313 2.26816 28.9581 4.53735 8.78572 34.3498 -24.3285 -0.258651 7.601 51.1757 6.24376 -11.2421 9.36679 0.462364 -4.37827 -11.8629 0.956329 -2.44616 15.0264 11.3407 -2.17422 -0.265762 0.12637 -1.30529e-009 8.75227e-006 -1.46892e-008 
-62.1231 99.2046 -144.683 -2.54923 10.2274 129.794 -13.9407 -4.48785 -2.53959 -0.367705 57.2798 3.53864 3.35173 5.31581 -0.429584 0.0462048 0.000530889 0.662642 -10.3246 6.48325 3.76642 1.01249 8.24499 1.63169 7.19305 6.23633 -17.5325 -24.0093 3.32424 -7.45365 -52.7333 -46.0736 -6.99699 45.2486 86.6353 -51.9816 1.48443 9.86797 2.59272 29.3049 4.69384 9.10548 33.9406 -24.9585 0.133706 8.40539 51.0069 5.11468 -11.2461 9.41617 -0.0950014 -5.34501 -11.8697 1.73154 -2.81156 19.4353 12.9422 -2.90302 -3.97517 0.10046 -1.30529e-009 8.75227e-006 -1.46892e-008 
-60.7486 99.1409 -146.529 -2.13528 10.7521 128.024 -13.8664 -8.99196 -0.668468 -0.612644 64.1941 1.78144 1.76862 5.76244 -0.298978 0.0462048 0.000530889 0.662642 -12.0783 7.2863 3.83855 2.07345 8.13498 1.00506 6.60035 6.36652 -16.6384 -24.1104 3.48114 -7.9296 -54.0269 -45.399 -10.8086 36.461 85.9463 -43.3042 2.24401 9.85407 2.94715 29.2602 4.66796 9.04915 34.3027 -26.3748 0.820294 9.15206 51.1367 3.73853 -11.2796 9.47817 -0.809732 -6.01434 -10.364 1.83941 -2.44116 20.793 14.4093 -3.60161 -6.2483 0.0665776 -1.30529e-009 8.75227e-006 -1.46892e-008 
-59.3052 99.4211 -148.469 -1.49246 10.4947 126.577 -13.2869 -13.2586 -0.481291 -0.750753 68.063 1.09485 1.95336 2.76807 -0.277773 0.0462048 0.000530889 0.662642 -12.1521 7.64894 3.28922 2.46391 7.77807 0.335667 6.92279 6.20337 -15.4405 -23.4445 3.50208 -8.24347 -55.7216 -44.7296 -14.6877 33.4483 85.7188 -40.1149 2.98434 9.84096 3.10543 29.6918 4.73439 9.08492 34.2357 -25.1996 0.909841 8.67543 49.2143 5.00283 -11.1722 9.53548 -1.41366 -5.915 -8.45629 2.18013 -2.16918 20.811 15.396 -3.81998 -7.79863 0.0279603 -1.30529e-009 8.75227e-006 -1.46892e-008 
-57.7991 99.6144 -150.314 -0.977503 10.0388 125.336 -12.8083 -17.1934 -1.73201 -0.857605 68.9808 0.532811 -0.00944625 1.42186 -0.112874 0.0462048 0.000530889 0.662642 -12.8815 8.27392 2.83807 4.03888 6.67352 -0.519454 6.48995 7.27644 -14.531 -23.2356 3.5773 -8.57239 -56.7684 -44.0914 -18.0144 28.3938 85.1675 -35.071 3.05186 9.84419 3.36361 29.6122 4.77287 9.21955 34.475 -25.3044 0.933302 8.46225 49.3804 5.26339 -11.4332 9.46822 -0.770684 -5.78145 -6.86498 2.45366 -1.82716 20.9855 16.304 -4.58867 -9.24323 -0.0243509 -1.30529e-009 8.75227e-006 -1.46892e-008 
-56.1381 99.8458 -152.187 -0.249031 9.36746 124.592 -12.2581 -20.077 -4.09243 -0.824061 66.8841 -0.0628566 -0.786893 -0.718985 -0.0810446 0.0462048 0.000530889 0.662642 -12.7857 8.63895 2.09346 5.26345 5.99672 -1.43206 6.52712 7.56661 -13.9142 -22.8168 3.67019 -9.05317 -57.7376 -43.4718 -21.0224 25.2216 84.3801 -32.0169 2.9815 9.84584 3.38112 29.6038 4.70397 9.03122 34.6393 -25.0501 1.17141 8.34228 49.6525 5.42048 -11.3575 9.45026 -0.5331 -5.49321 -4.98612 2.48559 -1.1122 20.9281 16.7084 -5.47036 -10.5825 -0.093028 -1.30529e-009 8.75227e-006 -1.46892e-008 
-54.4615 99.9465 -154.024 0.186056 8.68129 123.358 -11.8238 -22.7624 -6.45679 -0.726993 62.5044 -0.254146 1.05857 -3.21485 -0.177774 0.0462048 0.000530889 0.662642 -12.2761 8.4873 1.38461 5.88499 5.9163 -2.04224 6.01075 7.55639 -12.9073 -22.3187 3.6106 -9.05006 -59.181 -42.299 -24.3385 22.8946 83.3972 -29.9547 2.67756 9.86463 4.33237 29.3572 4.66067 8.99522 34.9306 -24.6012 1.49436 7.88451 49.4866 6.07952 -11.4107 9.4374 -0.414284 -5.14811 -3.34645 2.85842 -0.909221 20.8727 17.4258 -6.02145 -12.0351 -0.175576 -1.30529e-009 8.75227e-006 -1.46892e-008 
-52.6735 100.019 -155.688 0.139519 7.8771 122.263 -11.5308 -24.9974 -9.6614 -0.639269 55.8011 -0.66828 0.727399 -3.63456 -0.171187 0.0462048 0.000530889 0.662642 -12.5035 8.16977 1.01118 7.10067 5.28587 -2.40878 5.83681 7.83172 -12.7769 -21.9084 3.72803 -9.63302 -59.7965 -41.5044 -26.9135 22.3369 82.6087 -29.7465 2.93705 9.8566 3.99848 29.4571 4.57317 8.71744 34.7058 -24.5402 1.37247 7.51141 50.2842 6.44908 -11.7621 9.34689 0.390599 -4.91434 -2.02169 3.08978 -0.737773 20.442 18.1757 -6.98101 -13.225 -0.28093 -1.30529e-009 8.75227e-006 -1.46892e-008 
-50.7934 100.258 -157.26 0.00584367 7.14687 121.167 -10.9066 -25.9283 -12.8857 -0.571613 46.3904 -2.27611 0.843745 -2.59324 -0.176804 0.0462048 0.000530889 0.662642 -12.8832 7.59284 0.674604 8.67771 5.08021 -2.8415 4.80121 8.63125 -12.2662 -21.5676 3.78447 -9.98119 -60.5186 -40.7309 -29.3473 24.1905 82.2157 -31.8467 3.59963 9.84202 3.68914 29.6027 4.59471 8.72818 34.33 -25.2733 1.12151 7.78957 51.1113 5.8717 -11.96 9.28027 1.00134 -4.76692 -0.265801 2.99369 -0.532266 19.1049 18.9185 -7.88753 -13.6498 -0.352197 -1.30529e-009 8.75227e-006 -1.46892e-008 
